<svg width="360" height="360" viewBox="0 0 360 360" fill="none" xmlns="http://www.w3.org/2000/svg">
<path d="M35.5048 209.5C14.0788 191.159 0.5 163.915 0.5 133.5C0.5 78.2715 45.2715 33.5 100.5 33.5C133.212 33.5 162.255 49.2069 180.5 73.4902C198.745 49.2069 227.788 33.5 260.5 33.5C315.728 33.5 360.5 78.2715 360.5 133.5C360.5 163.915 346.921 191.159 325.495 209.5H325.5L180.916 354.084L35.5 209.5H35.5048Z" fill="url(#paint0_linear_0_1)"/>
<path d="M241.083 190C241.083 183.373 235.711 178 229.083 178C222.456 178 217.083 183.373 217.083 190H241.083ZM186.917 232.368L186.917 244.368H186.917V232.368ZM178.683 212.78C183.38 208.104 183.397 200.506 178.721 195.81C174.045 191.113 166.447 191.096 161.75 195.772L178.683 212.78ZM142 232.368L133.534 223.864C131.272 226.116 130 229.177 130 232.368C130 235.56 131.272 238.62 133.534 240.872L142 232.368ZM161.75 268.964C166.447 273.64 174.045 273.624 178.721 268.927C183.397 264.23 183.38 256.632 178.683 251.956L161.75 268.964ZM217.083 190C217.083 206.826 203.523 220.368 186.917 220.368V244.368C216.886 244.368 241.083 219.973 241.083 190H217.083ZM133.534 240.872C139.043 246.358 143.342 250.638 147.642 254.918C151.941 259.199 156.24 263.479 161.75 268.964L178.683 251.956C173.173 246.471 168.874 242.191 164.575 237.91C160.276 233.63 155.976 229.35 150.467 223.864L133.534 240.872ZM161.75 195.772C156.24 201.258 151.941 205.538 147.642 209.818C143.342 214.099 139.043 218.379 133.534 223.864L150.467 240.872C155.976 235.387 160.275 231.107 164.575 226.826C168.874 222.546 173.173 218.266 178.683 212.78L161.75 195.772ZM142 244.368L186.917 244.368L186.917 220.368L142 220.368L142 244.368Z" fill="white" fill-opacity="0.75"/>
<path d="M119 186.46C119 193.088 124.373 198.46 131 198.46C137.627 198.46 143 193.088 143 186.46H119ZM173.167 144.092L173.167 132.092H173.167V144.092ZM181.4 163.68C176.704 168.356 176.687 175.954 181.363 180.651C186.039 185.347 193.637 185.364 198.333 180.688L181.4 163.68ZM218.083 144.092L226.55 152.596C228.812 150.344 230.083 147.284 230.083 144.092C230.083 140.9 228.812 137.84 226.55 135.588L218.083 144.092ZM198.333 107.496C193.637 102.82 186.039 102.837 181.363 107.534C176.687 112.23 176.704 119.828 181.4 124.504L198.333 107.496ZM143 186.46C143 169.634 156.56 156.092 173.167 156.092V132.092C143.197 132.092 119 156.488 119 186.46H143ZM226.55 135.588C221.04 130.103 216.741 125.822 212.442 121.542C208.142 117.262 203.843 112.981 198.333 107.496L181.4 124.504C186.91 129.989 191.209 134.27 195.509 138.55C199.808 142.83 204.107 147.111 209.617 152.596L226.55 135.588ZM198.333 180.688C203.843 175.203 208.142 170.923 212.442 166.642C216.741 162.362 221.04 158.081 226.55 152.596L209.617 135.588C204.107 141.073 199.808 145.354 195.509 149.634C191.209 153.915 186.91 158.195 181.4 163.68L198.333 180.688ZM218.083 132.092L173.167 132.092L173.167 156.092L218.083 156.092L218.083 132.092Z" fill="white" fill-opacity="0.75"/>
<defs>
<linearGradient id="paint0_linear_0_1" x1="180.5" y1="33.5" x2="180.5" y2="354.084" gradientUnits="userSpaceOnUse">
<stop stop-color="#7E60BF"/>
<stop offset="1" stop-color="#AA60C8"/>
</linearGradient>
</defs>
</svg>
