<svg width="360" height="360" viewBox="0 0 360 360" fill="none" xmlns="http://www.w3.org/2000/svg">
<path d="M35.5048 209.5C14.0788 191.159 0.5 163.915 0.5 133.5C0.5 78.2715 45.2715 33.5 100.5 33.5C133.212 33.5 162.255 49.2069 180.5 73.4902C198.745 49.2069 227.788 33.5 260.5 33.5C315.728 33.5 360.5 78.2715 360.5 133.5C360.5 163.915 346.921 191.159 325.495 209.5H325.5L180.916 354.084L35.5 209.5H35.5048Z" fill="url(#paint0_linear_0_1)"/>
<path d="M97 180C97 186.627 102.373 192 109 192C115.627 192 121 186.627 121 180H97ZM204.317 157.68C199.62 162.356 199.603 169.954 204.279 174.651C208.955 179.347 216.553 179.364 221.25 174.688L204.317 157.68ZM241 138.092L249.467 146.596C251.728 144.344 253 141.284 253 138.092C253 134.9 251.728 131.84 249.467 129.588L241 138.092ZM221.25 101.496C216.553 96.8201 208.955 96.8369 204.279 101.533C199.603 106.23 199.62 113.828 204.317 118.504L221.25 101.496ZM241 149.632C247.627 149.632 253 144.259 253 137.632C253 131.004 247.627 125.632 241 125.632V149.632ZM121 180C121 163.174 134.56 149.632 151.167 149.632V125.632C121.197 125.632 97 150.027 97 180H121ZM249.467 129.588L221.25 101.496L204.317 118.504L232.533 146.596L249.467 129.588ZM221.25 174.688L249.467 146.596L232.534 129.588L204.317 157.68L221.25 174.688ZM241 125.632H151.167V149.632H241V125.632Z" fill="white" fill-opacity="0.75"/>
<path d="M264 193C264 186.373 258.627 181 252 181C245.373 181 240 186.373 240 193H264ZM156.683 215.32C161.38 210.644 161.397 203.046 156.721 198.349C152.045 193.653 144.447 193.636 139.75 198.312L156.683 215.32ZM120 234.908L111.533 226.404C109.272 228.656 108 231.716 108 234.908C108 238.1 109.272 241.16 111.533 243.412L120 234.908ZM139.75 271.504C144.447 276.18 152.045 276.163 156.721 271.467C161.397 266.77 161.38 259.172 156.683 254.496L139.75 271.504ZM120 223.368C113.373 223.368 108 228.741 108 235.368C108 241.996 113.373 247.368 120 247.368V223.368ZM240 193C240 209.826 226.44 223.368 209.833 223.368V247.368C239.803 247.368 264 222.973 264 193H240ZM111.533 243.412L139.75 271.504L156.683 254.496L128.467 226.404L111.533 243.412ZM139.75 198.312L111.533 226.404L128.466 243.412L156.683 215.32L139.75 198.312ZM120 247.368H209.833V223.368H120V247.368Z" fill="white" fill-opacity="0.75"/>
<defs>
<linearGradient id="paint0_linear_0_1" x1="180.5" y1="354.084" x2="180.5" y2="33.5" gradientUnits="userSpaceOnUse">
<stop stop-color="#DD88CF"/>
<stop offset="1" stop-color="#AA60C8"/>
</linearGradient>
</defs>
</svg>
